<svg width="13" height="19" viewBox="0 0 13 19" fill="none" xmlns="http://www.w3.org/2000/svg">
<path d="M4.19141 18.2695H3.54688C1.25781 18.2695 0.113281 18.0938 0.113281 17.7422C0.113281 17.5391 0.304688 17.3164 0.6875 17.0742C1.07812 16.832 1.33203 16.5 1.44922 16.0781C1.57422 15.6484 1.63672 14.4414 1.63672 12.457C1.63672 10.4727 1.57812 9.34375 1.46094 9.07031C1.35156 8.79688 1.14453 8.55859 0.839844 8.35547C0.535156 8.14453 0.382812 7.95703 0.382812 7.79297C0.382812 7.62109 0.554688 7.32031 0.898438 6.89062C1.25 6.45312 1.49609 5.92969 1.63672 5.32031C1.99609 3.80469 2.49219 2.70313 3.125 2.01562C3.92969 1.13281 5.05859 0.691406 6.51172 0.691406C7.21484 0.691406 7.77734 0.816406 8.19922 1.06641C8.62109 1.30859 8.83203 1.625 8.83203 2.01562C8.83203 2.40625 8.72656 2.69531 8.51562 2.88281C8.3125 3.07031 8.09375 3.16406 7.85938 3.16406C7.63281 3.16406 7.25781 3.02344 6.73438 2.74219C6.21875 2.46094 5.82812 2.32031 5.5625 2.32031C5.13281 2.32031 4.80078 2.58984 4.56641 3.12891C4.33984 3.66016 4.22656 4.24609 4.22656 4.88672C4.22656 5.52734 4.35938 5.99609 4.625 6.29297C4.71875 6.39453 5.06641 6.60156 5.66797 6.91406C6.26953 7.21875 6.57031 7.48828 6.57031 7.72266C6.57031 7.90234 6.26172 8.08594 5.64453 8.27344C5.02734 8.45312 4.64453 8.65234 4.49609 8.87109C4.24609 9.23828 4.12109 10.4258 4.12109 12.4336C4.12109 14.4336 4.19141 15.6367 4.33203 16.043C4.48047 16.4492 4.76562 16.8047 5.1875 17.1094C5.60938 17.4141 5.82031 17.6484 5.82031 17.8125C5.82031 18.1172 5.27734 18.2695 4.19141 18.2695ZM10.3438 18.2812C9.9375 18.2812 9.56641 18.1367 9.23047 17.8477C8.89453 17.5586 8.72656 17.1797 8.72656 16.7109V16.6055C8.72656 16.1523 8.89844 15.7773 9.24219 15.4805C9.59375 15.1836 9.94922 15.0352 10.3086 15.0352H10.5195C10.6367 15.0586 10.7227 15.0703 10.7773 15.0703C11.0508 15.0703 11.3359 15.2188 11.6328 15.5156C11.9297 15.8125 12.0781 16.1562 12.0781 16.5469V16.7109C12.0781 17.0703 11.9336 17.418 11.6445 17.7539C11.3633 18.082 11.0391 18.2461 10.6719 18.2461L10.4023 18.2812H10.3438Z" fill="white"/>
</svg>
